<svg width="63" height="41" viewBox="0 0 63 41" fill="none" xmlns="http://www.w3.org/2000/svg">
<path d="M21.1901 39.5455C25.245 39.5455 28.5321 36.2583 28.5321 32.2035C28.5321 28.1486 25.245 24.8615 21.1901 24.8615C17.1353 24.8615 13.8481 28.1486 13.8481 32.2035C13.8481 36.2583 17.1353 39.5455 21.1901 39.5455Z" stroke="#78A678" stroke-width="2" stroke-linecap="round" stroke-linejoin="round"/>
<path d="M41.3806 15.684C45.4354 15.684 48.7226 12.3969 48.7226 8.34199C48.7226 4.28712 45.4354 1 41.3806 1C37.3257 1 34.0386 4.28712 34.0386 8.34199C34.0386 12.3969 37.3257 15.684 41.3806 15.684Z" stroke="#78A678" stroke-width="2" stroke-linecap="round" stroke-linejoin="round"/>
<path d="M30.3682 32.2035H61.5716" stroke="#78A678" stroke-width="2" stroke-linecap="round" stroke-linejoin="round"/>
<path d="M1 8.34199L32.2035 8.34199" stroke="#78A678" stroke-width="2" stroke-linecap="round" stroke-linejoin="round"/>
<path d="M1 32.2035H11.9212" stroke="#78A678" stroke-width="2" stroke-linecap="round" stroke-linejoin="round"/>
<path d="M50.5586 8.34199H61.4798" stroke="#78A678" stroke-width="2" stroke-linecap="round" stroke-linejoin="round"/>
</svg>
